<svg xmlns="http://www.w3.org/2000/svg" viewBox="0 0 1658.67 1393"><defs><style>.cls-1{fill:#fff;}.cls-2,.cls-3,.cls-4{fill:none;stroke:#000;stroke-miterlimit:10;}.cls-2{stroke-width:14px;}.cls-3{stroke-width:10px;}</style></defs><g id="Layer_2" data-name="Layer 2"><g id="Layer_6" data-name="Layer 6"><path class="cls-1" d="M1591,668a60.71,60.71,0,1,1,60.71-60.71A60.78,60.78,0,0,1,1591,668Z"/><path d="M1591,553.58a53.71,53.71,0,1,1-53.7,53.7,53.76,53.76,0,0,1,53.7-53.7m0-14a67.71,67.71,0,1,0,67.71,67.7,67.7,67.7,0,0,0-67.71-67.7Z"/><line class="cls-2" x1="1531.42" y1="606.8" x2="1397.92" y2="606.8"/><circle class="cls-1" cx="261.08" cy="1198.48" r="187.52"/><path d="M261.08,1018a180.53,180.53,0,1,1-127.64,52.87A179.37,179.37,0,0,1,261.08,1018m0-14c-107.43,0-194.52,87.09-194.52,194.52S153.65,1393,261.08,1393s194.52-87.09,194.52-194.52S368.51,1004,261.08,1004Z"/><circle cx="261.86" cy="1198.48" r="70.81"/><path d="M261.86,1134.67a63.81,63.81,0,1,1-63.81,63.81,63.89,63.89,0,0,1,63.81-63.81m0-14a77.81,77.81,0,1,0,77.81,77.81,77.81,77.81,0,0,0-77.81-77.81Z"/><circle class="cls-1" cx="1140.6" cy="1198.48" r="187.52"/><path d="M1140.6,1018A180.53,180.53,0,1,1,1013,1070.83,179.37,179.37,0,0,1,1140.6,1018m0-14c-107.43,0-194.52,87.09-194.52,194.52S1033.17,1393,1140.6,1393s194.52-87.09,194.52-194.52S1248,1004,1140.6,1004Z"/><circle cx="1141.38" cy="1198.48" r="70.81"/><path d="M1141.38,1134.67a63.81,63.81,0,1,1-63.81,63.81,63.88,63.88,0,0,1,63.81-63.81m0-14a77.81,77.81,0,1,0,77.81,77.81,77.81,77.81,0,0,0-77.81-77.81Z"/><path class="cls-1" d="M1185.07,1252.21c-24.32,0-38.71-6.14-55.38-13.24-17.89-7.64-38.17-16.28-73.59-17.74-2.62-.11-5.21-.16-7.7-.16-26.27,0-41.61,6.13-56.44,12-15.63,6.24-31.79,12.7-63.05,13.28-1.91,0-3.78.06-5.6.06-34.69,0-53.06-6.41-72.52-13.19-20-7-40.65-14.17-79.2-15.77-5.63-.23-11.15-.35-16.42-.35-43,0-67.68,7.91-89.41,14.88-18.86,6-36.67,11.77-64.62,11.77-7.09,0-14.74-.37-22.76-1.1-33.78-3.08-53-8.5-71.57-13.75-22-6.2-42.72-12-83.69-13.31-4.41-.14-8.66-.21-12.64-.21-23.18,0-36.57,2.34-50.74,4.82-15.61,2.73-33.3,5.83-68.59,6.57-4.62.1-9.21.15-13.63.15-32.7,0-54.88-2.65-76.34-5.21-20.34-2.43-39.56-4.72-66.14-4.72-6.77,0-13.89.16-21.14.46a565.85,565.85,0,0,0-101.7,13.63,4.55,4.55,0,0,1-1,.12,4.46,4.46,0,0,1-3-1.19A3.58,3.58,0,0,1,7,1227.45V527.54H1391.4v696.29a8.74,8.74,0,0,1-9,8.44,10.52,10.52,0,0,1-1.58-.13c-3.07-.5-6.27-1.06-9.59-1.64-16.43-2.84-36.87-6.38-58.71-6.38-6.27,0-12.45.29-18.37.87-30.55,3-46.56,10-60.69,16.21-12.11,5.31-22.56,9.89-40.6,10.8C1190.22,1252.14,1187.6,1252.21,1185.07,1252.21Z"/><path d="M1384.4,534.54v689.29c0,.75-.94,1.44-2,1.44a3.42,3.42,0,0,1-.45,0c-3-.5-6.18-1-9.52-1.62-16.69-2.89-37.47-6.49-59.91-6.49-6.5,0-12.9.3-19,.9-31.66,3.09-48.94,10.67-62.83,16.77-11.94,5.24-21.38,9.38-38.13,10.22-2.55.13-5,.2-7.46.2-22.89,0-36.67-5.88-52.63-12.68-18.45-7.87-39.36-16.78-76-18.29-2.72-.11-5.4-.17-8-.17-27.62,0-43.59,6.38-59,12.55-15.74,6.29-30.6,12.22-60.58,12.78-1.85,0-3.69.06-5.47.06-33.5,0-50.52-5.93-70.22-12.8-19.51-6.8-41.62-14.51-81.21-16.15-5.73-.24-11.35-.36-16.71-.36-44.14,0-69.33,8.09-91.55,15.22-19.11,6.13-35.62,11.43-62.48,11.43-6.88,0-14.32-.36-22.12-1.07-33.14-3-52-8.36-70.31-13.51-22.4-6.32-43.55-12.29-85.37-13.58-4.48-.14-8.81-.21-12.86-.21-23.79,0-37.47,2.39-52,4.93-15.36,2.69-32.78,5.73-67.53,6.46-4.58.1-9.11.15-13.48.15-32.28,0-54.25-2.62-75.51-5.16-20.56-2.45-40-4.77-67-4.77-6.87,0-14.08.16-21.44.47a572.54,572.54,0,0,0-99.6,13v-689H1384.4m14-14H0v706.91a11,11,0,0,0,11.17,10.8,11.57,11.57,0,0,0,2.59-.3,558.41,558.41,0,0,1,100.43-13.45c7.46-.32,14.37-.46,20.85-.46,54.46,0,78.76,9.93,142.48,9.93,4.4,0,9,0,13.77-.15,67.88-1.43,71.38-11.39,119.19-11.39,3.84,0,8,.06,12.43.2,74.88,2.32,80.71,20.27,154.84,27,8.55.78,16.29,1.13,23.39,1.13,61.89,0,75-26.65,154-26.65q7.64,0,16.13.35c76.07,3.16,81.24,29,152,29,1.86,0,3.78,0,5.73-.06,62.8-1.18,67.62-25.33,119.36-25.33q3.55,0,7.42.16c66.27,2.72,76.15,31,129.25,31,2.62,0,5.33-.07,8.17-.21,40.6-2.06,45.47-21.57,101.61-27,6-.59,11.9-.84,17.69-.84,25.51,0,48.74,4.91,67.17,7.93a17.89,17.89,0,0,0,2.71.22c8.65,0,16-6.78,16-15.44V520.54Z"/><path class="cls-2" d="M317.42,643.61a803.42,803.42,0,0,0,1.94,124c9.71,104.52,31.84,120.1,30,198.6-1,42.52-7.56,41.15-21.29,153.85-5.24,43-8.59,78.5-10.65,102.56"/><path class="cls-2" d="M698.72,822.63A444.7,444.7,0,0,1,714.2,930.79c1.21,70.4-15.46,104-19.36,183.68a641.2,641.2,0,0,0,3.88,108.16"/><path class="cls-2" d="M1055.82,749a413.77,413.77,0,0,0-19.36,106.3c-4,82.87,19.8,124,27.1,209.79,3.06,36,3.91,87.84-7.74,152"/><path d="M1188.58,502.8H608.46a21.2,21.2,0,0,1-20-14.3l-19.91-57.88a21.19,21.19,0,0,1,20-28.08h620a21.19,21.19,0,0,1,20,28.08l-19.92,57.88A21.19,21.19,0,0,1,1188.58,502.8Z"/><path d="M795.31,271.65c-4.62,10-14.58,26.07-20,31.52A165,165,0,0,1,748.64,324a159,159,0,0,1-21.85,11.48c-10.47,4.56-29.39,12.83-31.61,13.94-2.69,1.36-29,15.76-35.57,21.38a80.54,80.54,0,0,1,4.26-7.12A77.57,77.57,0,0,1,679,347.07c4.62-3.93,10.89-9.79,19.76-19,7.6-7.88,36.45-48.13,34.47-65.88a36.62,36.62,0,0,0-1.09-5.24c-.15-.56-.31-1.11-.47-1.64a46.53,46.53,0,0,0-5.53-11.5l-21.21-32.48q-11.85-18.15-24.72-35.6h0a99.12,99.12,0,0,1-6-9.17,70.32,70.32,0,0,1-4.68-9.34c-1.68-4.13-3.14-7.73-3.6-12.72a26.08,26.08,0,0,1,1.34-12.61,21.49,21.49,0,0,1,5.29-7.91c4.25-4.24,9.88-9.71,14.24-13.91a74,74,0,0,0,14-18.41S710.59,69,712.13,44.38C713.67,38.22,712.13,9,710,0c0,0,5.24,10.49,17.56,21.27,0,0,9.24,9.25,15.41,13.87A162.14,162.14,0,0,1,756.8,47.46s10.63,10.63,13.38,17.08c.41,1,.79,1.94,1.24,2.88,1.55,3.22,4.71,11,2.32,17-3.08,7.7-16.94,24.65-27.72,32.35a24.71,24.71,0,0,0-7.27,8.76,39,39,0,0,0-.73,34.25,53.58,53.58,0,0,0,3.38,6.28C749.1,178.4,764.5,200,764.5,200s30.81,41.59,30.81,49.29C795.31,249.25,799.93,261.72,795.31,271.65Z"/><path d="M965.07,271.65c-4.62,10-14.58,26.07-20,31.52A165,165,0,0,1,918.4,324a159,159,0,0,1-21.85,11.48c-10.47,4.56-29.39,12.83-31.61,13.94-2.69,1.36-29,15.76-35.57,21.38a82.47,82.47,0,0,1,4.25-7.12,77.79,77.79,0,0,1,15.15-16.57c4.62-3.93,10.89-9.79,19.76-19C876.13,320.2,905,280,903,262.2a35.21,35.21,0,0,0-1.08-5.24c-.15-.56-.31-1.11-.47-1.64a46.21,46.21,0,0,0-5.54-11.5l-21.2-32.48q-11.85-18.15-24.72-35.6h0a97.12,97.12,0,0,1-6-9.17,70.32,70.32,0,0,1-4.68-9.34c-1.68-4.13-3.14-7.73-3.61-12.72A26.23,26.23,0,0,1,837,131.9a21.49,21.49,0,0,1,5.29-7.91c4.25-4.24,9.88-9.71,14.24-13.91a74,74,0,0,0,14-18.41s9.25-21.45,11.17-45.32c.08-1.07.22-2.14.37-3.2,1.13-8.12-.35-34.7-2.39-43.15,0,0,5.24,10.49,17.56,21.27,0,0,9.24,9.25,15.41,13.87a162.14,162.14,0,0,1,13.86,12.32s10.62,10.63,13.38,17.08c.41,1,.79,1.94,1.24,2.88,1.55,3.22,4.71,11,2.32,17-3.08,7.7-16.94,24.65-27.72,32.35a24.71,24.71,0,0,0-7.27,8.76,39,39,0,0,0-.74,34.25,56.74,56.74,0,0,0,3.38,6.28C918.86,178.4,934.26,200,934.26,200s30.81,41.59,30.81,49.29C965.07,249.25,969.69,261.72,965.07,271.65Z"/><path d="M1134.83,271.65c-4.62,10-14.58,26.07-20,31.52A165,165,0,0,1,1088.16,324a159.54,159.54,0,0,1-21.85,11.48c-10.47,4.56-29.39,12.83-31.61,13.94-2.69,1.36-29,15.76-35.57,21.38a82.47,82.47,0,0,1,4.25-7.12,77.79,77.79,0,0,1,15.15-16.57c4.62-3.93,10.89-9.79,19.76-19,7.6-7.88,36.45-48.13,34.46-65.88a35.21,35.21,0,0,0-1.08-5.24c-.15-.56-.31-1.11-.47-1.64a46.21,46.21,0,0,0-5.54-11.5l-21.2-32.48q-11.85-18.15-24.72-35.6h0a97.12,97.12,0,0,1-6-9.17,70.32,70.32,0,0,1-4.68-9.34c-1.68-4.13-3.14-7.73-3.61-12.72a26.23,26.23,0,0,1,1.35-12.61,21.49,21.49,0,0,1,5.29-7.91c4.24-4.24,9.88-9.71,14.24-13.91a74,74,0,0,0,14-18.41s9.25-21.45,11.17-45.32c.08-1.07.22-2.14.36-3.2,1.14-8.12-.34-34.7-2.38-43.15,0,0,5.24,10.49,17.56,21.27,0,0,9.24,9.25,15.4,13.87a161.27,161.27,0,0,1,13.87,12.32s10.62,10.63,13.37,17.08c.42,1,.8,1.94,1.25,2.88,1.55,3.22,4.71,11,2.32,17-3.08,7.7-16.94,24.65-27.72,32.35a24.71,24.71,0,0,0-7.27,8.76,39,39,0,0,0-.74,34.25,55.12,55.12,0,0,0,3.38,6.28C1088.62,178.4,1104,200,1104,200s30.81,41.59,30.81,49.29C1134.83,249.25,1139.45,261.72,1134.83,271.65Z"/><path class="cls-3" d="M378,502.8H247.06a15.14,15.14,0,0,1-15.12-14.33L217,212a15.14,15.14,0,0,1,15.11-16H392.89A15.14,15.14,0,0,1,408,212L393.07,488.47A15.15,15.15,0,0,1,378,502.8Z"/><polygon points="290.06 164.53 290.04 164.55 290.04 404.43 259.95 404.43 259.95 176.97 158.01 75.04 179.29 53.76 290.06 164.53"/><path d="M366.92,489H258.09a12.43,12.43,0,0,1-12.57-11.57L233.09,254.05a12.39,12.39,0,0,1,12.57-12.9H379.35a12.39,12.39,0,0,1,12.57,12.9L379.49,477.47A12.43,12.43,0,0,1,366.92,489Z"/><path class="cls-4" d="M445.41,191.74A42.81,42.81,0,0,1,415.15,222l-1.21-4.53v0l-7.14-26.56-2.74-10.24-2.74,10.24-7.14,26.59L393,222a42.83,42.83,0,1,1,52.44-30.27Z"/><path d="M397.42,178.27H366a37.56,37.56,0,0,1,9.05-22.34Z"/><path d="M401.32,142.65V174.4L378.92,152A37.91,37.91,0,0,1,401.32,142.65Z"/><path d="M429.17,152,406.8,174.37V142.65A37.91,37.91,0,0,1,429.17,152Z"/><path d="M442.07,178.27h-31.4L433,155.9A38.09,38.09,0,0,1,442.07,178.27Z"/><path d="M442,183.75a37.84,37.84,0,0,1-9.3,22l-22-22Z"/><path d="M428.78,209.63a38.06,38.06,0,0,1-14.84,7.82l-7.14-26.56v-3.24Z"/><path d="M401.32,187.62v3.27l-7.14,26.59a37.83,37.83,0,0,1-14.87-7.85Z"/><path d="M397.42,183.75l-22,22a37.6,37.6,0,0,1-9.33-22Z"/></g></g></svg>