<svg xmlns="http://www.w3.org/2000/svg" viewBox="0 0 1595.93 1120.03"><g id="Layer_2" data-name="Layer 2"><g id="Layer_7" data-name="Layer 7"><path d="M1524.67,211.34a11.64,11.64,0,0,1,9.56,4.34,6.82,6.82,0,0,1,1.57,5.78l-120.47,412-.33,1.14-.29,1.14a8.94,8.94,0,0,1-8.68,6.78H687.14a8.94,8.94,0,0,1-8.68-6.78l-.29-1.14-.33-1.14-120.48-412a6.87,6.87,0,0,1,1.58-5.78,11.6,11.6,0,0,1,9.56-4.34h956.17m0-60H568.5c-46.35,0-80.34,42.16-69.1,85.68L620.25,650.28a69,69,0,0,0,66.89,52.22H1406a68.94,68.94,0,0,0,66.88-52.22L1593.77,237c11.24-43.52-22.76-85.68-69.1-85.68Z"/><path d="M1477.44,897.88a31.21,31.21,0,0,1-31.21,31.21H727.53l-1.09,0c-.46,0-.93,0-1.4,0a31.22,31.22,0,0,1-29.94-22.45L448.22,62.41H31.2A31.21,31.21,0,0,1,31.2,0H471.72a31.21,31.21,0,0,1,30.61,25.11l246.1,841.57h697.8A31.2,31.2,0,0,1,1477.44,897.88Z"/><path d="M1384.63,968.15a55.94,55.94,0,1,1-55.94,55.94,56,56,0,0,1,55.94-55.94m0-40a95.94,95.94,0,1,0,95.94,95.94,95.94,95.94,0,0,0-95.94-95.94Z"/><path d="M792.43,968.15a55.94,55.94,0,1,1-55.94,55.94,56,56,0,0,1,55.94-55.94m0-40a95.94,95.94,0,1,0,95.94,95.94,95.94,95.94,0,0,0-95.94-95.94Z"/><rect x="833.08" y="174.22" width="41.5" height="492.97" transform="translate(-83.76 256.55) rotate(-16.3)"/><rect x="1213.87" y="189.79" width="41.5" height="492.97" transform="translate(172.07 -328.98) rotate(16.3)"/><rect x="1028.64" y="-37.89" width="41.5" height="928.65" transform="translate(622.96 1475.83) rotate(-90)"/></g></g></svg>